<?xml version="1.0" encoding="utf-8"?>
<!-- Generator: Adobe Illustrator 28.2.0, SVG Export Plug-In . SVG Version: 6.00 Build 0)  -->
<svg version="1.1" id="Layer_1" xmlns="http://www.w3.org/2000/svg" xmlns:xlink="http://www.w3.org/1999/xlink" x="0px" y="0px"
	 viewBox="0 0 2000 2000" style="enable-background:new 0 0 2000 2000;" xml:space="preserve">
<g>
	<path d="M908.5,661.7c1.1,15.5-1.3,31.3-4.2,46.6c-4.3,22-8.6,43.8-12.6,65.9c-3.6,21.6-8.4,46.2,1.5,66.6
		c13.2,26.3,46.7,23.3,71.5,16.9c50.3-13.2,100.3-28.1,150.3-42.3c125.4-36.1,250.8-72.8,376.5-107.8c21.3-6,42.4-12.6,63.6-18.5
		c20.4-5.6,43.2-9.9,63.4-4.2c31.5,8.3,48.8,39.3,47.8,71c-0.2,19.2-4.6,38.6-8.3,57.6c-10.3,51.4-19,103.4-30.5,154.6
		c-3.1,13.5-6.8,27-11.7,40c-21.7,59-64.5,81.4-121.9,97.6c-52.4,15.5-105.1,30.2-157.7,45.3c-46.2,13.1-92.4,26.1-138.3,40
		c-31.3,8.5-63.6,21.3-96.4,19.1c-31.3-2.3-55.3-25.8-59-56.8c-1.9-13.6-0.6-27.5,1.4-41c4.5-27.2,10.3-54.1,15-81.3
		c3.7-21.3,7.9-47.8-4.1-66.6c-17.2-26.2-52.7-19.1-78.8-11.7c-48.4,14.4-97,27.9-145.6,41.5c-23.3,6.8-46.4,13.9-69.8,20.3
		c-75.3,20.7-149.9,44-225.2,64.4c-42.6,11.9-84.9,25-127.6,36.9c-22.1,6.1-45.3,12.9-68,9.4c-31.2-4.2-54.1-31.5-55.9-62.8
		c-1.5-17.2,1.6-35.1,4.8-52.2c7.7-39.3,15.6-78.6,23.2-118.1c8.5-40.3,14-82.8,35.1-118.8c20.2-35.2,55.2-54.8,93.1-66
		c112.3-33.3,225.1-65.4,337.6-97.8c14.9-4.1,30-8.5,45.3-10.7c44.3-7.3,82.4,16.6,85.3,62.9L908.5,661.7z"/>
</g>
</svg>
